HIERARCHY
ROOT Hips
{
  OFFSET 49.8115 83.8793 -6.17861
  CHANNELS 6 Xposition Yposition Zposition Zrotation Xrotation Yrotation
  JOINT spine
  {
    OFFSET 0 5.95438 0.342407
    CHANNELS 3 Zrotation Xrotation Yrotation
    JOINT spine1
    {
      OFFSET 0 8.85602 0
      CHANNELS 3 Zrotation Xrotation Yrotation
      JOINT spine2
      {
        OFFSET 0 8.48567 0
        CHANNELS 3 Zrotation Xrotation Yrotation
        JOINT Neck
        {
          OFFSET 0 21.7863 1.0387
          CHANNELS 3 Zrotation Xrotation Yrotation
          JOINT Head
          {
            OFFSET 0 6.5822 0
            CHANNELS 3 Zrotation Xrotation Yrotation
            End Site
            {
              OFFSET 0 15.9326 -5.25436
            }
          }
        }
        JOINT RightShoulder
        {
          OFFSET -3.57307 9.16386 -0.497525
          CHANNELS 3 Zrotation Xrotation Yrotation
          JOINT RightArm
          {
            OFFSET 0 12.0192 0
            CHANNELS 3 Zrotation Xrotation Yrotation
            JOINT RightArmRoll
            {
              OFFSET 0 6.06755 0
              CHANNELS 3 Zrotation Xrotation Yrotation
              JOINT RightForeArm
              {
                OFFSET 0 17.6726 0
                CHANNELS 3 Zrotation Xrotation Yrotation
                JOINT RightForeArmRoll
                {
                  OFFSET 0 6.80872 0
                  CHANNELS 3 Zrotation Xrotation Yrotation
                  JOINT RightHand
                  {
                    OFFSET 0 13.6636 0
                    CHANNELS 3 Zrotation Xrotation Yrotation
                    End Site
                    {
                      OFFSET 0 0 0
                    }
                  }
                }
              }
            }
          }
        }
        JOINT LeftShoulder
        {
          OFFSET 3.57307 9.16386 -0.497525
          CHANNELS 3 Zrotation Xrotation Yrotation
          JOINT LeftArm
          {
            OFFSET 0 12.0192 0
            CHANNELS 3 Zrotation Xrotation Yrotation
            JOINT LeftArmRoll
            {
              OFFSET 0 6.06755 0
              CHANNELS 3 Zrotation Xrotation Yrotation
              JOINT LeftForeArm
              {
                OFFSET 0 17.6726 0
                CHANNELS 3 Zrotation Xrotation Yrotation
                JOINT LeftForeArmRoll
                {
                  OFFSET 0 6.80872 0
                  CHANNELS 3 Zrotation Xrotation Yrotation
                  JOINT LeftHand
                  {
                    OFFSET 0 13.6636 0
                    CHANNELS 3 Zrotation Xrotation Yrotation
                    End Site
                    {
                      OFFSET 0 0 0
                    }
                  }
                }
              }
            }
          }
        }
      }
    }
  }
  JOINT RightUpLeg
  {
    OFFSET -5.27774 -0.967797 -0.811858
    CHANNELS 3 Zrotation Xrotation Yrotation
    JOINT RightUpLegRoll
    {
      OFFSET 0 16.0214 0
      CHANNELS 3 Zrotation Xrotation Yrotation
      JOINT RightLeg
      {
        OFFSET 0 -19.8401 0
        CHANNELS 3 Zrotation Xrotation Yrotation
        JOINT RightLegRoll
        {
          OFFSET 0 19.905 0
          CHANNELS 3 Zrotation Xrotation Yrotation
          JOINT RightFoot
          {
            OFFSET 0 16.5675 0
            CHANNELS 3 Zrotation Xrotation Yrotation
            JOINT RightToeBase
            {
              OFFSET 0 13.8496 0
              CHANNELS 3 Zrotation Xrotation Yrotation
              End Site
              {
                OFFSET 0.00587034 6.70727 -0.773117
              }
            }
          }
        }
      }
    }
  }
  JOINT LeftUpLeg
  {
    OFFSET 5.27774 -0.967797 -0.811858
    CHANNELS 3 Zrotation Xrotation Yrotation
    JOINT LeftUpLegRoll
    {
      OFFSET 0 16.0215 0
      CHANNELS 3 Zrotation Xrotation Yrotation
      JOINT LeftLeg
      {
        OFFSET 0 19.84 0
        CHANNELS 3 Zrotation Xrotation Yrotation
        JOINT LeftLegRoll
        {
          OFFSET 0 20.089 0
          CHANNELS 3 Zrotation Xrotation Yrotation
          JOINT LeftFoot
          {
            OFFSET 0 16.3835 0
            CHANNELS 3 Zrotation Xrotation Yrotation
            JOINT LeftToeBase
            {
              OFFSET 0 13.8496 0
              CHANNELS 3 Zrotation Xrotation Yrotation
              End Site
              {
                OFFSET -0.0263083 6.70727 -0.773117
              }
            }
          }
        }
      }
    }
  }
}
MOTION
Frames: 11
Frame Time: 0.00208333
54.1156 84.0994 -1.76553 1.8868 -8.84331 -1.39719 0.26735 0.865293 0.0931244 0.52929 5.723 0.137628 0.528716 7.36806 0.127216 -11.1598 36.1106 1.63459 4.57661 14.536 -4.47177 68.7582 -3.0448 -2.65839 112.345 19.1249 -13.43 9.93923e-015 3.18055e-015 -0 -3.63789 -0.0156387 -1.99184 6.4828e-006 1.0037e-006 -3.01159 8.03008 -4.95139 0.697618 -68.3945 -0.962594 1.5574 -116.469 18.212 16.0286 2.81624e-006 4.46361e-006 5.68697e-006 3.63963 -0.0252289 1.9924 6.24636e-006 3.63686e-006 3.0116 -8.03009 -4.95136 -0.697629 175.204 1.80749 5.51883 180 7.01548e-015 178.929 176.674 14.1827 179.972 -1.02115e-006 -6.70675e-007 0.23577 -20.6425 70.2433 21.6132 8.1328 25.2329 -3.48616 177.392 -0.738059 2.43945 4.54188e-006 -4.6773e-006 -1.13709 -0.978591 -10.8968 0.226592 5.53619e-007 2.66626e-006 -0.198165 19.9916 69.5617 -20.9422 -8.13524 25.2327 3.48721 
54.1181 84.0987 -1.76469 1.88519 -8.82463 -1.38814 0.268006 0.86531 0.0931144 0.530428 5.72432 0.137498 0.529857 7.36938 0.127283 -11.1496 36.0463 1.62586 4.5945 14.5811 -4.47223 68.7555 -3.06474 -2.6684 112.346 19.1334 -13.4337 -6.36111e-015 4.77083e-015 -3.18055e-015 -3.63789 -0.0156387 -1.99184 6.4828e-006 1.0037e-006 -3.01159 8.03008 -4.95139 0.697618 -68.3798 -0.968662 1.55901 -116.488 18.2222 16.0503 2.81624e-006 4.46361e-006 5.68697e-006 3.63963 -0.0252289 1.9924 6.24636e-006 3.63686e-006 3.0116 -8.03009 -4.95136 -0.697629 175.205 1.82746 5.5168 180 7.01548e-015 178.929 176.673 14.19 179.973 -1.02115e-006 -6.70675e-007 0.23577 -20.6466 70.2472 21.6176 8.1328 25.2329 -3.48616 177.395 -0.713693 2.43776 4.54188e-006 -4.6773e-006 -1.13712 -0.982706 -10.9049 0.226744 5.53619e-007 2.66626e-006 -0.198172 19.9819 69.5517 -20.9318 -8.13524 25.2327 3.48721 
54.1192 84.0953 -1.76847 1.88364 -8.80597 -1.37858 0.268663 0.865335 0.0931044 0.531546 5.72573 0.137367 0.530977 7.37078 0.12735 -11.1381 35.98 1.61659 4.61155 14.6305 -4.47256 68.7532 -3.08598 -2.6791 112.347 19.1425 -13.4376 1.19271e-014 3.18055e-015 -0 -3.63789 -0.0156387 -1.99184 6.4828e-006 1.0037e-006 -3.01159 8.03008 -4.95139 0.697618 -68.3646 -0.974911 1.56066 -116.507 18.2327 16.0727 2.81624e-006 4.46361e-006 5.68697e-006 3.63963 -0.0252289 1.9924 6.24636e-006 3.63686e-006 3.0116 -8.03009 -4.95136 -0.697629 175.206 1.84749 5.51496 180 7.01548e-015 178.929 176.671 14.1976 179.974 -1.02115e-006 -6.70675e-007 0.23577 -20.6509 70.2514 21.6222 8.1328 25.2329 -3.48616 177.397 -0.689147 2.436 4.54188e-006 -4.6773e-006 -1.13716 -0.98694 -10.9133 0.226896 5.53619e-007 2.66626e-006 -0.198183 19.9718 69.5414 -20.921 -8.13524 25.2327 3.48721 
54.1292 84.0988 -1.76603 1.88212 -8.78733 -1.36867 0.269321 0.865367 0.0930943 0.532649 5.72718 0.137236 0.532083 7.37224 0.127418 -11.1256 35.9125 1.60695 4.628 14.6828 -4.4728 68.7512 -3.10813 -2.69029 112.348 19.152 -13.4417 8.74653e-015 3.18055e-015 -1.59028e-015 -3.63789 -0.0156387 -1.99184 6.4828e-006 1.0037e-006 -3.01159 8.03008 -4.95139 0.697618 -68.3491 -0.981287 1.56235 -116.527 18.2435 16.0955 2.81624e-006 4.46361e-006 5.68697e-006 3.63963 -0.0252289 1.9924 6.24636e-006 3.63686e-006 3.0116 -8.03009 -4.95136 -0.697629 175.207 1.86756 5.51327 180 7.01548e-015 178.929 176.67 14.2054 179.974 -1.02115e-006 -6.70675e-007 0.23577 -20.6554 70.2556 21.6269 8.1328 25.2329 -3.48616 177.4 -0.664475 2.43419 4.54188e-006 -4.6773e-006 -1.13722 -0.991259 -10.9217 0.227048 5.53619e-007 2.66626e-006 -0.198197 19.9616 69.531 -20.9101 -8.13524 25.2327 3.48721 
54.1258 84.1008 -1.76053 1.88061 -8.76871 -1.35855 0.26998 0.865402 0.0930841 0.533744 5.72868 0.137104 0.533181 7.37373 0.127486 -11.1127 35.8442 1.5971 4.6441 14.7367 -4.473 68.7494 -3.1308 -2.70176 112.349 19.1617 -13.4458 2.38542e-015 6.36111e-015 -1.59028e-015 -3.63789 -0.0156387 -1.99184 6.4828e-006 1.0037e-006 -3.01159 8.03008 -4.95139 0.697618 -68.3334 -0.987737 1.56406 -116.547 18.2544 16.1186 2.81624e-006 4.46361e-006 5.68697e-006 3.63963 -0.0252289 1.9924 6.24636e-006 3.63686e-006 3.0116 -8.03009 -4.95136 -0.697629 175.208 1.88766 5.51165 180 7.01548e-015 178.929 176.669 14.2133 179.975 -1.02115e-006 -6.70675e-007 0.23577 -20.6599 70.2599 21.6316 8.1328 25.2329 -3.48616 177.402 -0.63973 2.43236 4.54188e-006 -4.6773e-006 -1.13728 -0.995626 -10.9303 0.227201 5.53619e-007 2.66626e-006 -0.198212 19.9513 69.5204 -20.899 -8.13524 25.2327 3.48721 
54.1303 84.1003 -1.75817 1.87911 -8.75009 -1.34838 0.270639 0.865437 0.093074 0.534836 5.73018 0.136972 0.534276 7.37523 0.127554 -11.0997 35.7757 1.58721 4.66012 14.7912 -4.47318 68.7476 -3.15362 -2.71332 112.35 19.1716 -13.45 1.07344e-014 -1.59028e-015 1.59028e-015 -3.63789 -0.0156387 -1.99184 6.4828e-006 1.0037e-006 -3.01159 8.03008 -4.95139 0.697618 -68.3177 -0.994208 1.56577 -116.567 18.2653 16.1418 2.81624e-006 4.46361e-006 5.68697e-006 3.63963 -0.0252289 1.9924 6.24636e-006 3.63686e-006 3.0116 -8.03009 -4.95136 -0.697629 175.209 1.90776 5.51006 180 7.01548e-015 178.929 176.667 14.2213 179.976 -1.02115e-006 -6.70675e-007 0.23577 -20.6644 70.2642 21.6364 8.1328 25.2329 -3.48616 177.405 -0.614966 2.43052 4.54188e-006 -4.6773e-006 -1.13734 -1.00001 -10.9388 0.227353 5.53619e-007 2.66626e-006 -0.198227 19.941 69.5098 -20.8879 -8.13524 25.2327 3.48721 
54.1312 84.1002 -1.75902 1.87758 -8.73146 -1.3383 0.271298 0.865472 0.0930639 0.535933 5.73166 0.136841 0.535375 7.37672 0.127623 -11.0869 35.7076 1.57744 4.67629 14.8448 -4.4734 68.7457 -3.17619 -2.72474 112.351 19.1813 -13.4542 2.38542e-015 4.77083e-015 -3.18055e-015 -3.63789 -0.0156387 -1.99184 6.4828e-006 1.0037e-006 -3.01159 8.03008 -4.95139 0.697618 -68.3021 -1.00064 1.56748 -116.587 18.2762 16.1649 2.81624e-006 4.46361e-006 5.68697e-006 3.63963 -0.0252289 1.9924 6.24636e-006 3.63686e-006 3.0116 -8.03009 -4.95136 -0.697629 175.21 1.92785 5.50843 180 7.01548e-015 178.929 176.666 14.2291 179.977 -1.02115e-006 -6.70675e-007 0.23577 -20.6689 70.2684 21.6412 8.1328 25.2329 -3.48616 177.407 -0.590235 2.4287 4.54188e-006 -4.6773e-006 -1.1374 -1.00436 -10.9473 0.227505 5.53619e-007 2.66626e-006 -0.198242 19.9308 69.4992 -20.8769 -8.13524 25.2327 3.48721 
54.1323 84.0981 -1.75753 1.87603 -8.71281 -1.32847 0.271956 0.865502 0.0930538 0.537039 5.73311 0.136709 0.536484 7.37817 0.12769 -11.0748 35.6403 1.56795 4.69287 14.8965 -4.47368 68.7436 -3.19814 -2.73583 112.352 19.1907 -13.4582 1.05356e-014 3.18055e-015 1.59028e-015 -3.63789 -0.0156387 -1.99184 6.4828e-006 1.0037e-006 -3.01159 8.03008 -4.95139 0.697618 -68.2867 -1.00699 1.56916 -116.607 18.2869 16.1877 2.81624e-006 4.46361e-006 5.68697e-006 3.63963 -0.0252289 1.9924 6.24636e-006 3.63686e-006 3.0116 -8.03009 -4.95136 -0.697629 175.211 1.94791 5.50671 180 7.01548e-015 178.929 176.664 14.2369 179.978 -1.02115e-006 -6.70675e-007 0.23577 -20.6733 70.2726 21.6459 8.1328 25.2329 -3.48616 177.41 -0.565589 2.4269 4.54188e-006 -4.6773e-006 -1.13745 -1.00866 -10.9558 0.227657 5.53619e-007 2.66626e-006 -0.198255 19.9207 69.4888 -20.866 -8.13524 25.2327 3.48721 
54.1368 84.0982 -1.7602 1.87442 -8.69415 -1.31904 0.272613 0.865525 0.0930438 0.538161 5.73449 0.136579 0.537609 7.37955 0.127757 -11.0638 35.5745 1.55891 4.71011 14.9449 -4.47406 68.7412 -3.21909 -2.74638 112.354 19.1997 -13.4621 -2.88238e-014 -3.18055e-015 -1.11319e-014 -3.63789 -0.0156387 -1.99184 6.4828e-006 1.0037e-006 -3.01159 8.03008 -4.95139 0.697618 -68.2715 -1.0132 1.5708 -116.626 18.2973 16.21 2.81624e-006 4.46361e-006 5.68697e-006 3.63963 -0.0252289 1.9924 6.24636e-006 3.63686e-006 3.0116 -8.03009 -4.95136 -0.697629 175.212 1.96793 5.50483 180 7.01548e-015 178.929 176.663 14.2444 179.978 -1.02115e-006 -6.70675e-007 0.23577 -20.6776 70.2767 21.6504 8.1328 25.2329 -3.48616 177.412 -0.541084 2.42516 4.54188e-006 -4.6773e-006 -1.13749 -1.01287 -10.9641 0.22781 5.53619e-007 2.66626e-006 -0.198266 19.9108 69.4785 -20.8554 -8.13524 25.2327 3.48721 
54.1376 84.1029 -1.75965 1.87276 -8.67545 -1.31014 0.273268 0.86554 0.0930338 0.539306 5.73579 0.136449 0.538756 7.38085 0.127823 -11.0541 35.5107 1.55049 4.72826 14.9888 -4.47457 68.7383 -3.23864 -2.75618 112.355 19.208 -13.4657 -1.5704e-014 -6.36111e-015 -6.36111e-015 -3.63789 -0.0156387 -1.99184 6.4828e-006 1.0037e-006 -3.01159 8.03008 -4.95139 0.697618 -68.2569 -1.01921 1.57239 -116.645 18.3073 16.2315 2.81624e-006 4.46361e-006 5.68697e-006 3.63963 -0.0252289 1.9924 6.24636e-006 3.63686e-006 3.0116 -8.03009 -4.95136 -0.697629 175.213 1.98788 5.50275 180 7.01548e-015 178.929 176.662 14.2517 179.979 -1.02115e-006 -6.70675e-007 0.23577 -20.6817 70.2806 21.6548 8.1328 25.2329 -3.48616 177.415 -0.51677 2.42349 4.54188e-006 -4.6773e-006 -1.13751 -1.01695 -10.9722 0.227962 5.53619e-007 2.66626e-006 -0.198272 19.9012 69.4686 -20.8451 -8.13524 25.2327 3.48721 
54.1414 84.1006 -1.74955 1.87101 -8.65671 -1.30195 0.273921 0.865542 0.0930239 0.540479 5.73698 0.13632 0.539932 7.38204 0.127888 -11.0462 35.4494 1.54283 4.74757 15.0269 -4.47527 68.7349 -3.25642 -2.76503 112.355 19.2154 -13.469 1.05356e-014 0 -0 -3.63789 -0.0156387 -1.99184 6.4828e-006 1.0037e-006 -3.01159 8.03008 -4.95139 0.697618 -68.2428 -1.02498 1.57391 -116.663 18.3168 16.2522 2.81624e-006 4.46361e-006 5.68697e-006 3.63963 -0.0252289 1.9924 6.24636e-006 3.63686e-006 3.0116 -8.03009 -4.95136 -0.697629 175.215 2.00776 5.5004 180 7.01548e-015 178.929 176.662 14.2587 179.98 -1.02115e-006 -6.70675e-007 0.23577 -20.6856 70.2844 21.659 8.1328 25.2329 -3.48616 177.417 -0.492702 2.42192 4.54188e-006 -4.6773e-006 -1.13751 -1.02087 -10.98 0.228114 5.53619e-007 2.66626e-006 -0.198273 19.892 69.4591 -20.8353 -8.13524 25.2327 3.48721 
